<?xml version="1.0" encoding="utf-8"?>
<!-- Generator: Adobe Illustrator 18.1.1, SVG Export Plug-In . SVG Version: 6.00 Build 0)  -->
<svg version="1.1" id="Layer_1" xmlns="http://www.w3.org/2000/svg" xmlns:xlink="http://www.w3.org/1999/xlink" x="0px" y="0px"
	 viewBox="0 0 50 50" enable-background="new 0 0 50 50" xml:space="preserve">
<g>
	<defs>
		<rect id="SVGID_1_" x="-695" y="-1137" width="1440" height="2326"/>
	</defs>
	<clipPath id="SVGID_2_">
		<use xlink:href="#SVGID_1_"  overflow="visible"/>
	</clipPath>
	<g opacity="0.7667" clip-path="url(#SVGID_2_)" enable-background="new    ">
		<g>
			<defs>
				<rect id="SVGID_3_" x="-662" y="893" width="23" height="18"/>
			</defs>
			<clipPath id="SVGID_4_">
				<use xlink:href="#SVGID_3_"  overflow="visible"/>
			</clipPath>
			<g clip-path="url(#SVGID_4_)">
				<defs>
					<rect id="SVGID_5_" x="-662" y="893" width="23" height="18"/>
				</defs>
				<clipPath id="SVGID_6_">
					<use xlink:href="#SVGID_5_"  overflow="visible"/>
				</clipPath>
				<g clip-path="url(#SVGID_6_)">
					<defs>
						<rect id="SVGID_7_" x="-662" y="893.4" width="23" height="17"/>
					</defs>
					<clipPath id="SVGID_8_">
						<use xlink:href="#SVGID_7_"  overflow="visible"/>
					</clipPath>
					<g transform="matrix(1 0 0 1 0 6.103516e-05)" clip-path="url(#SVGID_8_)">
						
							<image overflow="visible" width="29" height="22" xlink:href="55550342CAEE697E.png"  transform="matrix(0.7931 0 0 0.7727 -662 893.423)">
						</image>
					</g>
				</g>
			</g>
		</g>
	</g>
</g>
<g>
	<defs>
		<rect id="SVGID_9_" x="-695" y="-1137" width="1440" height="2326"/>
	</defs>
	<clipPath id="SVGID_10_">
		<use xlink:href="#SVGID_9_"  overflow="visible"/>
	</clipPath>
	<g opacity="0.7667" clip-path="url(#SVGID_10_)" enable-background="new    ">
		<g>
			<defs>
				<rect id="SVGID_11_" x="-662" y="893" width="23" height="18"/>
			</defs>
			<clipPath id="SVGID_12_">
				<use xlink:href="#SVGID_11_"  overflow="visible"/>
			</clipPath>
			<g clip-path="url(#SVGID_12_)">
				<defs>
					<rect id="SVGID_13_" x="-662" y="893" width="23" height="18"/>
				</defs>
				<clipPath id="SVGID_14_">
					<use xlink:href="#SVGID_13_"  overflow="visible"/>
				</clipPath>
				<g clip-path="url(#SVGID_14_)">
					<defs>
						<rect id="SVGID_15_" x="-662" y="893.4" width="23" height="17"/>
					</defs>
					<clipPath id="SVGID_16_">
						<use xlink:href="#SVGID_15_"  overflow="visible"/>
					</clipPath>
					<g transform="matrix(1 0 0 1 0 6.103516e-05)" clip-path="url(#SVGID_16_)">
						
							<image overflow="visible" width="29" height="22" xlink:href="55550342CAEE697D.png"  transform="matrix(0.7931 0 0 0.7727 -662 893.423)">
						</image>
					</g>
				</g>
			</g>
		</g>
	</g>
</g>
<g>
	<path fill="#231F20" d="M122.8,12.6v24.9H78.2V12.6H122.8 M124.8,10.6H76.2v28.9h48.6V10.6L124.8,10.6z"/>
</g>
<polyline fill="none" stroke="#231F20" stroke-width="2" stroke-miterlimit="10" points="77.2,11.6 100.5,26 123.8,11.6 "/>
<path fill="#58595B" d="M0.7,10.1v29.9h48.6V10.1H0.7z M41.5,14.1L25,27L8.5,14.1H41.5z M4.7,35.9V16.2L25,32l20.3-15.9v19.8H4.7z"
	/>
</svg>
