<?xml version="1.0" encoding="utf-8"?>
<!-- Generator: Adobe Illustrator 18.1.1, SVG Export Plug-In . SVG Version: 6.00 Build 0)  -->
<svg version="1.1" id="Layer_1" xmlns="http://www.w3.org/2000/svg" xmlns:xlink="http://www.w3.org/1999/xlink" x="0px" y="0px"
	 viewBox="0 0 50 50" enable-background="new 0 0 50 50" xml:space="preserve">
<g>
	<path fill="#3B5898" d="M49.2,3.8v42.4c0,1.7-1.4,3-3,3H34.1V30.4h6.1l1-7h-7.1v-5.5c0-2,1-3.1,3-3.1h4.5V8.5c0,0-2-0.3-5-0.3
		c-6.7,0-10,3.7-10,9.2v6h-6.1v7h6.1v18.8H3.8c-1.7,0-3-1.4-3-3V3.8c0-1.7,1.4-3,3-3h42.4C47.9,0.8,49.2,2.1,49.2,3.8z"/>
</g>
</svg>
