<?xml version="1.0" encoding="utf-8"?>
<!-- Generator: Adobe Illustrator 18.1.1, SVG Export Plug-In . SVG Version: 6.00 Build 0)  -->
<svg version="1.1" id="Layer_1" xmlns="http://www.w3.org/2000/svg" xmlns:xlink="http://www.w3.org/1999/xlink" x="0px" y="0px"
	 viewBox="0 0 50 50" enable-background="new 0 0 50 50" xml:space="preserve">
<g>
	<path fill="#3F729B" d="M49.2,7.9v34.3c0,3.9-3.2,7.1-7.1,7.1H7.9c-3.9,0-7.1-3.2-7.1-7.1V7.9C0.8,4,4,0.8,7.9,0.8h34.3
		C46,0.8,49.2,4,49.2,7.9z M44.2,22h-5.4c0.2,1,0.3,2,0.3,3c0,7.8-6.3,14.1-14.1,14.1S10.9,32.8,10.9,25c0-1,0.1-2.1,0.3-3H5.8v21.2
		c0,0.6,0.4,1,1,1h36.3c0.6,0,1-0.4,1-1V22z M15.9,25c0,5,4.1,9.1,9.1,9.1s9.1-4.1,9.1-9.1S30,15.9,25,15.9S15.9,20,15.9,25z
		 M44.2,6.8c0-0.6-0.4-1-1-1h-6.1c-0.6,0-1,0.4-1,1v6.1c0,0.6,0.4,1,1,1h6.1c0.6,0,1-0.4,1-1V6.8z"/>
</g>
</svg>
