<?xml version="1.0" encoding="utf-8"?>
<!-- Generator: Adobe Illustrator 18.1.1, SVG Export Plug-In . SVG Version: 6.00 Build 0)  -->
<svg version="1.1" id="Layer_1" xmlns="http://www.w3.org/2000/svg" xmlns:xlink="http://www.w3.org/1999/xlink" x="0px" y="0px"
	 viewBox="0 0 50 50" enable-background="new 0 0 50 50" xml:space="preserve">
<g>
	<path fill="#0076FF" d="M44.2,15.2v1.3c0,13.1-9.9,28.1-28.1,28.1c-5.6,0-10.8-1.2-15.2-4c0.8,0.1,1.6,0.2,2.4,0.2
		c4.6,0,8.9-2,12.3-4.7c-4.3,0-8-3-9.2-6.9c0.6,0.1,1.2,0.2,1.8,0.2c0.9,0,1.8-0.1,2.6-0.4c-4.5-0.9-7.9-4.9-7.9-9.7v-0.1
		c1.3,0.7,2.8,1.2,4.5,1.2c-2.7-1.8-4.4-4.8-4.4-8.2c0-1.8,0.5-3.3,1.3-4.8c4.9,6,12.2,9.7,20.3,10.1c-0.2-0.7-0.2-1.5-0.2-2.3
		c0-5.5,4.4-9.9,9.9-9.9c2.8,0,5.4,1.2,7.3,3.1c2.2-0.4,4.4-1.3,6.2-2.4c-0.7,2.3-2.3,4.3-4.4,5.5c2-0.2,3.9-0.8,5.7-1.6
		C47.7,12.1,46.1,13.8,44.2,15.2z"/>
</g>
</svg>
